<svg width="278" height="46" viewBox="0 0 278 46" fill="none" xmlns="http://www.w3.org/2000/svg">
<path d="M0.76 45.001V1.48098H16.312C22.456 1.48098 27.064 3.50764 30.136 7.56097C33.208 11.6143 34.744 16.841 34.744 23.241C34.744 29.641 33.208 34.8676 30.136 38.921C27.064 42.9743 22.456 45.001 16.312 45.001H0.76ZM16.312 6.08897H5.88V40.393H16.312C20.7493 40.393 24.0773 38.8143 26.296 35.657C28.5147 32.457 29.624 28.3183 29.624 23.241C29.624 18.1636 28.5147 14.0463 26.296 10.889C24.0773 7.68897 20.7493 6.08897 16.312 6.08897ZM42.4475 45.001V1.48098H47.5675V45.001H42.4475ZM68.7365 45.897C65.0672 45.897 62.0592 44.5103 59.7125 41.737C57.3658 38.9636 56.1925 34.9743 56.1925 29.769C56.1925 24.521 57.6645 20.2756 60.6085 17.033C63.5952 13.7476 67.2858 12.105 71.6805 12.105C76.1178 12.105 80.1072 13.3423 83.6485 15.817V38.601L84.2885 45.001L80.0645 45.321L78.9765 39.561C76.5872 43.785 73.1738 45.897 68.7365 45.897ZM61.0565 29.641C61.0565 33.481 61.8672 36.425 63.4885 38.473C65.1098 40.521 67.1792 41.545 69.6965 41.545C72.2565 41.545 74.4112 40.2863 76.1605 37.769C77.9098 35.209 78.7845 31.6036 78.7845 26.953V18.057C76.6512 16.9903 74.3685 16.457 71.9365 16.457C68.7792 16.457 66.1765 17.6943 64.1285 20.169C62.0805 22.601 61.0565 25.7583 61.0565 29.641ZM109.918 12.105C115.038 12.105 118.238 14.7716 119.518 20.105C120.755 17.545 122.334 15.5823 124.254 14.217C126.216 12.809 128.222 12.105 130.27 12.105C133.555 12.105 136.072 13.2356 137.822 15.497C139.571 17.7156 140.446 21.065 140.446 25.545V45.001H135.582V25.545C135.582 19.4863 133.555 16.457 129.502 16.457C127.155 16.457 125.022 17.737 123.102 20.297C121.224 22.857 120.222 26.377 120.094 30.857V45.001H115.23V25.545C115.23 19.4863 113.203 16.457 109.15 16.457C106.803 16.457 104.67 17.737 102.75 20.297C100.872 22.857 99.8695 26.377 99.7415 30.857V45.001H94.8775V19.401L94.2375 13.001L98.4615 12.681L99.6775 19.145C100.958 16.8836 102.515 15.1556 104.35 13.961C106.184 12.7236 108.04 12.105 109.918 12.105ZM151.97 41.225C149.623 38.0676 148.45 33.993 148.45 29.001C148.45 24.009 149.623 19.9556 151.97 16.841C154.317 13.6836 157.815 12.105 162.466 12.105C167.159 12.105 170.701 13.6836 173.09 16.841C175.479 19.9556 176.674 24.009 176.674 29.001C176.674 33.993 175.479 38.0676 173.09 41.225C170.701 44.3396 167.159 45.897 162.466 45.897C157.815 45.897 154.317 44.3396 151.97 41.225ZM155.618 19.977C154.082 22.281 153.314 25.289 153.314 29.001C153.314 32.713 154.082 35.7423 155.618 38.089C157.154 40.393 159.458 41.545 162.53 41.545C165.602 41.545 167.906 40.393 169.442 38.089C171.021 35.7423 171.81 32.713 171.81 29.001C171.81 25.289 171.021 22.281 169.442 19.977C167.906 17.6303 165.602 16.457 162.53 16.457C159.458 16.457 157.154 17.6303 155.618 19.977ZM200.995 12.105C207.992 12.105 211.491 16.585 211.491 25.545V45.001H206.627V25.545C206.627 19.4863 204.472 16.457 200.163 16.457C197.688 16.457 195.427 17.737 193.379 20.297C191.374 22.857 190.307 26.377 190.179 30.857V45.001H185.315V19.401L184.675 13.001L188.899 12.681L190.115 19.273C191.438 16.969 193.08 15.1983 195.043 13.961C197.006 12.7236 198.99 12.105 200.995 12.105ZM231.737 45.897C228.067 45.897 225.059 44.5103 222.713 41.737C220.366 38.9636 219.193 34.9743 219.193 29.769C219.193 24.521 220.665 20.2756 223.609 17.033C226.595 13.7476 230.371 12.105 234.937 12.105C237.198 12.105 239.481 12.5103 241.785 13.321V0.200974H246.649V38.601L247.289 45.001L243.065 45.321L241.977 39.561C239.587 43.785 236.174 45.897 231.737 45.897ZM224.057 29.641C224.057 33.481 224.867 36.425 226.489 38.473C228.11 40.521 230.179 41.545 232.697 41.545C235.257 41.545 237.411 40.2863 239.161 37.769C240.91 35.209 241.785 31.6036 241.785 26.953V18.057C239.651 16.9903 237.369 16.457 234.937 16.457C231.779 16.457 229.177 17.6943 227.129 20.169C225.081 22.601 224.057 25.7583 224.057 29.641ZM266.262 41.481C268.139 41.481 269.718 41.033 270.998 40.137C272.278 39.241 272.918 38.1316 272.918 36.809C272.918 35.4436 272.555 34.377 271.83 33.609C271.104 32.7983 270.315 32.2223 269.462 31.881C268.651 31.5396 267.478 31.1556 265.942 30.729C264.406 30.2596 263.232 29.8756 262.422 29.577C261.611 29.2356 260.651 28.7236 259.542 28.041C257.451 26.761 256.406 24.585 256.406 21.513C256.406 18.3983 257.451 16.0516 259.542 14.473C261.632 12.8943 264.086 12.105 266.902 12.105C268.651 12.105 270.4 12.3396 272.15 12.809C273.942 13.2783 275.286 13.769 276.182 14.281L274.39 18.185C272.342 17.0756 269.846 16.521 266.902 16.521C265.408 16.521 264.086 16.9263 262.934 17.737C261.824 18.505 261.27 19.5076 261.27 20.745C261.27 21.9396 261.611 22.8783 262.294 23.561C262.976 24.2436 263.68 24.7343 264.406 25.033C265.131 25.3316 266.24 25.6943 267.734 26.121C269.227 26.5476 270.422 26.953 271.318 27.337C272.256 27.6783 273.302 28.233 274.454 29.001C276.672 30.4943 277.782 32.8623 277.782 36.105C277.782 39.305 276.672 41.737 274.454 43.401C272.278 45.065 269.547 45.897 266.262 45.897C261.824 45.897 258.07 44.4676 254.998 41.609L257.622 38.089C259.968 40.3503 262.848 41.481 266.262 41.481Z" fill="#65BAB1"/>
</svg>
