<svg width="174" height="29" viewBox="0 0 174 29" fill="none" xmlns="http://www.w3.org/2000/svg">
<path d="M0.0375001 28V0.8H9.7575C13.5975 0.8 16.4775 2.06667 18.3975 4.6C20.3175 7.13333 21.2775 10.4 21.2775 14.4C21.2775 18.4 20.3175 21.6667 18.3975 24.2C16.4775 26.7333 13.5975 28 9.7575 28H0.0375001ZM9.7575 3.68H3.2375V25.12H9.7575C12.5308 25.12 14.6108 24.1333 15.9975 22.16C17.3842 20.16 18.0775 17.5733 18.0775 14.4C18.0775 11.2267 17.3842 8.65333 15.9975 6.68C14.6108 4.68 12.5308 3.68 9.7575 3.68ZM26.0922 28V0.8H29.2922V28H26.0922ZM42.5228 28.56C40.2295 28.56 38.3495 27.6933 36.8828 25.96C35.4161 24.2267 34.6828 21.7333 34.6828 18.48C34.6828 15.2 35.6028 12.5467 37.4428 10.52C39.3095 8.46667 41.6161 7.44 44.3628 7.44C47.1361 7.44 49.6295 8.21333 51.8428 9.76V24L52.2428 28L49.6028 28.2L48.9228 24.6C47.4295 27.24 45.2961 28.56 42.5228 28.56ZM37.7228 18.4C37.7228 20.8 38.2295 22.64 39.2428 23.92C40.2561 25.2 41.5495 25.84 43.1228 25.84C44.7228 25.84 46.0695 25.0533 47.1628 23.48C48.2561 21.88 48.8028 19.6267 48.8028 16.72V11.16C47.4695 10.4933 46.0428 10.16 44.5228 10.16C42.5495 10.16 40.9228 10.9333 39.6428 12.48C38.3628 14 37.7228 15.9733 37.7228 18.4ZM68.2609 7.44C71.4609 7.44 73.4609 9.10667 74.2609 12.44C75.0343 10.84 76.0209 9.61333 77.2209 8.76C78.4476 7.88 79.7009 7.44 80.9809 7.44C83.0343 7.44 84.6076 8.14667 85.7009 9.56C86.7943 10.9467 87.3409 13.04 87.3409 15.84V28H84.3009V15.84C84.3009 12.0533 83.0343 10.16 80.5009 10.16C79.0343 10.16 77.7009 10.96 76.5009 12.56C75.3276 14.16 74.7009 16.36 74.6209 19.16V28H71.5809V15.84C71.5809 12.0533 70.3143 10.16 67.7809 10.16C66.3143 10.16 64.9809 10.96 63.7809 12.56C62.6076 14.16 61.9809 16.36 61.9009 19.16V28H58.8609V12L58.4609 8L61.1009 7.8L61.8609 11.84C62.6609 10.4267 63.6343 9.34667 64.7809 8.6C65.9276 7.82667 67.0876 7.44 68.2609 7.44ZM94.5438 25.64C93.0771 23.6667 92.3438 21.12 92.3438 18C92.3438 14.88 93.0771 12.3467 94.5438 10.4C96.0104 8.42667 98.1971 7.44 101.104 7.44C104.037 7.44 106.25 8.42667 107.744 10.4C109.237 12.3467 109.984 14.88 109.984 18C109.984 21.12 109.237 23.6667 107.744 25.64C106.25 27.5867 104.037 28.56 101.104 28.56C98.1971 28.56 96.0104 27.5867 94.5438 25.64ZM96.8238 12.36C95.8638 13.8 95.3838 15.68 95.3838 18C95.3838 20.32 95.8638 22.2133 96.8238 23.68C97.7838 25.12 99.2238 25.84 101.144 25.84C103.064 25.84 104.504 25.12 105.464 23.68C106.45 22.2133 106.944 20.32 106.944 18C106.944 15.68 106.45 13.8 105.464 12.36C104.504 10.8933 103.064 10.16 101.144 10.16C99.2238 10.16 97.7838 10.8933 96.8238 12.36ZM125.184 7.44C129.558 7.44 131.744 10.24 131.744 15.84V28H128.704V15.84C128.704 12.0533 127.358 10.16 124.664 10.16C123.118 10.16 121.704 10.96 120.424 12.56C119.171 14.16 118.504 16.36 118.424 19.16V28H115.384V12L114.984 8L117.624 7.8L118.384 11.92C119.211 10.48 120.238 9.37333 121.464 8.6C122.691 7.82667 123.931 7.44 125.184 7.44ZM144.398 28.56C142.104 28.56 140.224 27.6933 138.758 25.96C137.291 24.2267 136.558 21.7333 136.558 18.48C136.558 15.2 137.478 12.5467 139.318 10.52C141.184 8.46667 143.544 7.44 146.398 7.44C147.811 7.44 149.238 7.69333 150.678 8.2V-1.90735e-06H153.718V24L154.118 28L151.478 28.2L150.798 24.6C149.304 27.24 147.171 28.56 144.398 28.56ZM139.598 18.4C139.598 20.8 140.104 22.64 141.118 23.92C142.131 25.2 143.424 25.84 144.998 25.84C146.598 25.84 147.944 25.0533 149.038 23.48C150.131 21.88 150.678 19.6267 150.678 16.72V11.16C149.344 10.4933 147.918 10.16 146.398 10.16C144.424 10.16 142.798 10.9333 141.518 12.48C140.238 14 139.598 15.9733 139.598 18.4ZM165.976 25.8C167.149 25.8 168.136 25.52 168.936 24.96C169.736 24.4 170.136 23.7067 170.136 22.88C170.136 22.0267 169.909 21.36 169.456 20.88C169.003 20.3733 168.509 20.0133 167.976 19.8C167.469 19.5867 166.736 19.3467 165.776 19.08C164.816 18.7867 164.083 18.5467 163.576 18.36C163.069 18.1467 162.469 17.8267 161.776 17.4C160.469 16.6 159.816 15.24 159.816 13.32C159.816 11.3733 160.469 9.90667 161.776 8.92C163.083 7.93333 164.616 7.44 166.376 7.44C167.469 7.44 168.563 7.58667 169.656 7.88C170.776 8.17333 171.616 8.48 172.176 8.8L171.056 11.24C169.776 10.5467 168.216 10.2 166.376 10.2C165.443 10.2 164.616 10.4533 163.896 10.96C163.203 11.44 162.856 12.0667 162.856 12.84C162.856 13.5867 163.069 14.1733 163.496 14.6C163.923 15.0267 164.363 15.3333 164.816 15.52C165.269 15.7067 165.963 15.9333 166.896 16.2C167.829 16.4667 168.576 16.72 169.136 16.96C169.723 17.1733 170.376 17.52 171.096 18C172.483 18.9333 173.176 20.4133 173.176 22.44C173.176 24.44 172.483 25.96 171.096 27C169.736 28.04 168.029 28.56 165.976 28.56C163.203 28.56 160.856 27.6667 158.936 25.88L160.576 23.68C162.043 25.0933 163.843 25.8 165.976 25.8Z" fill="#65BAB1"/>
</svg>
