<svg width="24" height="24" viewBox="0 0 24 24" fill="none" xmlns="http://www.w3.org/2000/svg">
<path d="M9.60289 0.800781C11.2754 0.800496 12.9134 1.27685 14.3249 2.17404C15.7365 3.07123 16.8631 4.3521 17.5728 5.86658C18.2825 7.38106 18.546 9.06644 18.3322 10.7253C18.1185 12.3841 17.4365 13.9476 16.3661 15.2328L22.9693 21.8344C23.111 21.9755 23.1948 22.1646 23.204 22.3643C23.2133 22.5641 23.1473 22.7601 23.0192 22.9137C22.8912 23.0673 22.7102 23.1673 22.512 23.1941C22.3138 23.2209 22.1127 23.1725 21.9485 23.0584L21.8365 22.9672L15.2349 16.364C14.1488 17.2681 12.8609 17.8974 11.4802 18.1986C10.0996 18.4998 8.66662 18.464 7.30266 18.0943C5.9387 17.7247 4.68384 17.0319 3.6442 16.0748C2.60456 15.1176 1.81072 13.9241 1.32985 12.5953C0.84897 11.2664 0.69519 9.84134 0.881515 8.44051C1.06784 7.03968 1.58879 5.70432 2.4003 4.54739C3.21181 3.39046 4.29001 2.44598 5.54371 1.79383C6.7974 1.14169 8.18972 0.801071 9.60289 0.800781ZM9.60289 2.40078C7.69333 2.40078 5.86198 3.15935 4.51172 4.50961C3.16146 5.85987 2.40289 7.69122 2.40289 9.60078C2.40289 11.5103 3.16146 13.3417 4.51172 14.6919C5.86198 16.0422 7.69333 16.8008 9.60289 16.8008C11.5124 16.8008 13.3438 16.0422 14.6941 14.6919C16.0443 13.3417 16.8029 11.5103 16.8029 9.60078C16.8029 7.69122 16.0443 5.85987 14.6941 4.50961C13.3438 3.15935 11.5124 2.40078 9.60289 2.40078Z" fill="black"/>
</svg>
