<svg width="142" height="124" viewBox="0 0 142 124" fill="none" xmlns="http://www.w3.org/2000/svg">
<path d="M1.56401 31.7616C1.56401 31.7616 83.9704 -14.4526 94.3568 6.54944C104.743 27.5515 141.075 42.5659 141.076 60.5762C141.077 78.5864 127.449 103.199 108.631 95.9955C89.8131 88.7916 25.5763 153.027 1.56649 95.9955" stroke="#C9C9C9"/>
<path d="M1.64369 17.2979C1.64369 17.2979 117.713 5.35628 128.099 26.3583C138.485 47.3603 128.099 52.7626 128.101 70.7728C128.102 88.783 89.1616 129.605 70.3435 122.401C51.5255 115.197 25.6529 138.552 1.64297 81.5212" stroke="#8B8B8B"/>
<path d="M88.5303 58.5303C88.8232 58.2374 88.8232 57.7626 88.5303 57.4697L83.7574 52.6967C83.4645 52.4038 82.9896 52.4038 82.6967 52.6967C82.4038 52.9896 82.4038 53.4645 82.6967 53.7574L86.9393 58L82.6967 62.2426C82.4038 62.5355 82.4038 63.0104 82.6967 63.3033C82.9896 63.5962 83.4645 63.5962 83.7574 63.3033L88.5303 58.5303ZM24 58.75H88V57.25H24V58.75Z" fill="#4D4D4D"/>
</svg>
