<svg width="129" height="127" viewBox="0 0 129 127" fill="none" xmlns="http://www.w3.org/2000/svg">
<path d="M2.20505 32.5644C2.20505 32.5644 76.6071 -14.7508 85.9845 6.7516C95.362 28.254 128.165 43.6261 128.166 62.0654C128.167 80.5047 115.862 105.704 98.8723 98.3286C81.8822 90.953 23.8849 156.718 2.20729 98.3285" stroke="#C9C9C9"/>
<path d="M2.27811 17.7566C2.27811 17.7566 107.073 5.53053 116.45 27.0329C125.828 48.5352 116.451 54.0662 116.452 72.5055C116.453 90.9447 81.2951 132.739 64.3049 125.363C47.3147 117.988 23.9552 141.899 2.27746 83.5099" stroke="#8B8B8B"/>
<path d="M76.5303 63.5303C76.8232 63.2374 76.8232 62.7626 76.5303 62.4697L71.7574 57.6967C71.4645 57.4038 70.9896 57.4038 70.6967 57.6967C70.4038 57.9896 70.4038 58.4645 70.6967 58.7574L74.9393 63L70.6967 67.2426C70.4038 67.5355 70.4038 68.0104 70.6967 68.3033C70.9896 68.5962 71.4645 68.5962 71.7574 68.3033L76.5303 63.5303ZM12 63.75H76V62.25H12V63.75Z" fill="#4D4D4D"/>
</svg>
