<svg width="142" height="125" viewBox="0 0 142 125" fill="none" xmlns="http://www.w3.org/2000/svg">
<path d="M1.56401 31.7635C1.56401 31.7635 83.9704 -14.4507 94.3568 6.55139C104.743 27.5535 141.075 42.5679 141.076 60.5781C141.077 78.5884 127.449 103.201 108.631 95.9974C89.8131 88.7935 25.5763 153.028 1.56649 95.9974" stroke="#C9C9C9"/>
<path d="M1.64369 17.2998C1.64369 17.2998 117.713 5.35823 128.099 26.3602C138.485 47.3623 128.099 52.7646 128.101 70.7748C128.102 88.7849 89.1616 129.607 70.3435 122.403C51.5255 115.199 25.6529 138.554 1.64297 81.5231" stroke="#8B8B8B"/>
<path d="M73.5303 61.5303C73.8232 61.2374 73.8232 60.7626 73.5303 60.4697L68.7574 55.6967C68.4645 55.4038 67.9896 55.4038 67.6967 55.6967C67.4038 55.9896 67.4038 56.4645 67.6967 56.7574L71.9393 61L67.6967 65.2426C67.4038 65.5355 67.4038 66.0104 67.6967 66.3033C67.9896 66.5962 68.4645 66.5962 68.7574 66.3033L73.5303 61.5303ZM9 61.75H73V60.25H9V61.75Z" fill="#4D4D4D"/>
</svg>
